C:\Users\israe\Dropbox\PhDWork\ExperimentalData\subject1\145\P1S145W10_filtered35.mot
nRows=8
nColumns=28

name C:\Users\israe\Dropbox\PhDWork\ExperimentalData\subject1\145\P1S145W10_filtered35.mot
datacolumns 28
datarows 8
range 1.2600000000 1.2670000000
endheader
time	ground_force_1_vx	ground_force_1_vy	ground_force_1_vz	ground_force_1_px	ground_force_1_py	ground_force_1_pz	ground_moment_1_mx	ground_moment_1_my	ground_moment_1_mz	ground_force_2_vx	ground_force_2_vy	ground_force_2_vz	ground_force_2_px	ground_force_2_py	ground_force_2_pz	ground_moment_2_mx	ground_moment_2_my	ground_moment_2_mz	ground_force_3_vx	ground_force_3_vy	ground_force_3_vz	ground_force_3_px	ground_force_3_py	ground_force_3_pz	ground_moment_3_mx	ground_moment_3_my	ground_moment_3_mz
        1.2600000000	        5.2637577523	       53.1263390535	       32.1930309109	        0.2000000000	        0.0000000000	       -0.9030000000	       16.6447515544	       -1.2856650926	       -1.4705733671	       -0.0000000000	        0.0000000000	       -0.0000000000	        0.2000000000	        0.0000000000	       -0.3000000000	        0.0000000000	        0.0000000000	        0.0000000000	        0.0000000000	        0.0000000000	       -0.0000000000	        0.2000000000	       -0.0000000000	        0.3030000000	       -0.0000000000	       -0.0000000000	        0.0000000000	
        1.2610000000	        5.0904721939	       51.2689797779	       31.1596817161	        0.2000000000	        0.0000000000	       -0.9030000000	       16.1336514840	       -1.2588367311	       -1.4414385174	        0.0000000000	        0.0000000000	       -0.0000000000	        0.2000000000	        0.0000000000	       -0.3000000000	        0.0000000000	        0.0000000000	        0.0000000000	        0.0000000000	        0.0000000000	       -0.0000000000	        0.2000000000	       -0.0000000000	        0.3030000000	       -0.0000000000	       -0.0000000000	        0.0000000000	
        1.2620000000	        4.9140654216	       49.4657624620	       30.1488459196	        0.2000000000	        0.0000000000	       -0.9030000000	       15.6374324879	       -1.2321558206	       -1.4144589982	        0.0000000000	        0.0000000000	       -0.0000000000	        0.2000000000	        0.0000000000	       -0.3000000000	        0.0000000000	        0.0000000000	        0.0000000000	        0.0000000000	        0.0000000000	       -0.0000000000	        0.2000000000	       -0.0000000000	        0.3030000000	       -0.0000000000	       -0.0000000000	        0.0000000000	
        1.2630000000	        4.7352766822	       47.7277938883	       29.1609766483	        0.2000000000	        0.0000000000	       -0.9030000000	       15.1567994158	       -1.2053290959	       -1.3890780045	        0.0000000000	        0.0000000000	       -0.0000000000	        0.2000000000	        0.0000000000	       -0.3000000000	        0.0000000000	       -0.0000000000	        0.0000000000	        0.0000000000	        0.0000000000	       -0.0000000000	        0.2000000000	       -0.0000000000	        0.3030000000	       -0.0000000000	       -0.0000000000	        0.0000000000	
        1.2640000000	        4.5543735884	       46.0642249301	       28.1952003262	        0.2000000000	        0.0000000000	       -0.9030000000	       14.6922805711	       -1.1780022702	       -1.3649112672	        0.0000000000	        0.0000000000	       -0.0000000000	        0.2000000000	        0.0000000000	       -0.3000000000	        0.0000000000	       -0.0000000000	        0.0000000000	        0.0000000000	        0.0000000000	       -0.0000000000	        0.2000000000	       -0.0000000000	        0.3030000000	       -0.0000000000	       -0.0000000000	        0.0000000000	
        1.2650000000	        4.3710198758	       44.4790244355	       27.2500035150	        0.2000000000	        0.0000000000	       -0.9030000000	       14.2437151488	       -1.1497042874	       -1.3415582899	        0.0000000000	        0.0000000000	       -0.0000000000	        0.2000000000	        0.0000000000	       -0.3000000000	        0.0000000000	       -0.0000000000	        0.0000000000	        0.0000000000	        0.0000000000	       -0.0000000000	        0.2000000000	       -0.0000000000	        0.3030000000	       -0.0000000000	       -0.0000000000	        0.0000000000	
        1.2660000000	        4.1846175338	       42.9694245662	       26.3240392715	        0.2000000000	        0.0000000000	       -0.9030000000	       13.8099861711	       -1.1199881445	       -1.3184939180	        0.0000000000	        0.0000000000	       -0.0000000000	        0.2000000000	        0.0000000000	       -0.3000000000	        0.0000000000	       -0.0000000000	        0.0000000000	        0.0000000000	        0.0000000000	       -0.0000000000	        0.2000000000	       -0.0000000000	        0.3030000000	       -0.0000000000	       -0.0000000000	        0.0000000000	
        1.2670000000	        3.9945411079	       41.5267557407	       25.4160159010	        0.2000000000	        0.0000000000	       -0.9030000000	       13.3891004186	       -1.0886895278	       -1.2951925546	        0.0000000000	        0.0000000000	       -0.0000000000	        0.2000000000	        0.0000000000	       -0.3000000000	        0.0000000000	       -0.0000000000	        0.0000000000	        0.0000000000	        0.0000000000	       -0.0000000000	        0.2000000000	       -0.0000000000	        0.3030000000	       -0.0000000000	       -0.0000000000	        0.0000000000	
